{
    "asset" : {
        "generator" : "Khronos glTF Blender I/O v1.3.48",
        "version" : "2.0"
    },
    "extensionsUsed" : [
        "KHR_materials_clearcoat"
    ],
    "scene" : 0,
    "scenes" : [
        {
            "name" : "Scene",
            "nodes" : [
                0,
                1,
                2,
                3,
                4
            ]
        }
    ],
    "nodes" : [
        {
            "mesh" : 0,
            "name" : "Cube"
        },
        {
            "name" : "Light",
            "rotation" : [
                0.16907575726509094,
                0.7558803558349609,
                -0.27217137813568115,
                0.570947527885437
            ],
            "translation" : [
                4.076245307922363,
                5.903861999511719,
                -1.0054539442062378
            ]
        },
        {
            "name" : "Camera",
            "rotation" : [
                0.483536034822464,
                0.33687159419059753,
                -0.20870360732078552,
                0.7804827094078064
            ],
            "translation" : [
                7.358891487121582,
                4.958309173583984,
                6.925790786743164
            ]
        },
        {
            "mesh" : 1,
            "name" : "Sphere",
            "scale" : [
                0.5,
                0.5,
                0.5
            ],
            "translation" : [
                0,
                1.0280898809432983,
                0
            ]
        },
        {
            "mesh" : 2,
            "name" : "Icosphere",
            "scale" : [
                0.12922972440719604,
                0.12922972440719604,
                0.12922972440719604
            ],
            "translation" : [
                0,
                1.591140866279602,
                0
            ]
        }
    ],
    "materials" : [
        {
            "doubleSided" : true,
            "emissiveFactor" : [
                0,
                0,
                0
            ],
            "extensions" : {
                "KHR_materials_clearcoat" : {
                    "clearcoatFactor" : 0.44999998807907104,
                    "clearcoatRoughnessFactor" : 0
                }
            },
            "name" : "Material",
            "pbrMetallicRoughness" : {
                "baseColorFactor" : [
                    0.26081326603889465,
                    0.49867212772369385,
                    1,
                    1
                ],
                "metallicFactor" : 0.5363636612892151,
                "roughnessFactor" : 0
            }
        },
        {
            "doubleSided" : true,
            "emissiveFactor" : [
                0,
                0,
                0
            ],
            "name" : "healthpack red",
            "pbrMetallicRoughness" : {
                "baseColorFactor" : [
                    0.8000000715255737,
                    0,
                    0.0027215834707021713,
                    1
                ],
                "metallicFactor" : 1,
                "roughnessFactor" : 0.16818180680274963
            }
        },
        {
            "doubleSided" : true,
            "emissiveFactor" : [
                0,
                0,
                0
            ],
            "name" : "Material.001",
            "pbrMetallicRoughness" : {
                "baseColorFactor" : [
                    0.007689297664910555,
                    0.8000000715255737,
                    0.003316617803648114,
                    1
                ],
                "metallicFactor" : 0,
                "roughnessFactor" : 0.5
            }
        }
    ],
    "meshes" : [
        {
            "name" : "Cube",
            "primitives" : [
                {
                    "attributes" : {
                        "POSITION" : 0,
                        "NORMAL" : 1,
                        "TEXCOORD_0" : 2
                    },
                    "indices" : 3,
                    "material" : 0
                }
            ]
        },
        {
            "name" : "Sphere",
            "primitives" : [
                {
                    "attributes" : {
                        "POSITION" : 4,
                        "NORMAL" : 5,
                        "TEXCOORD_0" : 6
                    },
                    "indices" : 7,
                    "material" : 1
                }
            ]
        },
        {
            "name" : "Icosphere",
            "primitives" : [
                {
                    "attributes" : {
                        "POSITION" : 8,
                        "NORMAL" : 9,
                        "TEXCOORD_0" : 10
                    },
                    "indices" : 11,
                    "material" : 2
                }
            ]
        }
    ],
    "accessors" : [
        {
            "bufferView" : 0,
            "componentType" : 5126,
            "count" : 470,
            "max" : [
                1.100000023841858,
                1.0588674545288086,
                1.0588674545288086
            ],
            "min" : [
                -1.100000023841858,
                -1.0588674545288086,
                -1.0588674545288086
            ],
            "type" : "VEC3"
        },
        {
            "bufferView" : 1,
            "componentType" : 5126,
            "count" : 470,
            "type" : "VEC3"
        },
        {
            "bufferView" : 2,
            "componentType" : 5126,
            "count" : 470,
            "type" : "VEC2"
        },
        {
            "bufferView" : 3,
            "componentType" : 5123,
            "count" : 852,
            "type" : "SCALAR"
        },
        {
            "bufferView" : 4,
            "componentType" : 5126,
            "count" : 1285,
            "max" : [
                1.4711779356002808,
                1.2000000476837158,
                1.4711779356002808
            ],
            "min" : [
                -1.4711772203445435,
                -1,
                -1.4711780548095703
            ],
            "type" : "VEC3"
        },
        {
            "bufferView" : 5,
            "componentType" : 5126,
            "count" : 1285,
            "type" : "VEC3"
        },
        {
            "bufferView" : 6,
            "componentType" : 5126,
            "count" : 1285,
            "type" : "VEC2"
        },
        {
            "bufferView" : 7,
            "componentType" : 5123,
            "count" : 7104,
            "type" : "SCALAR"
        },
        {
            "bufferView" : 8,
            "componentType" : 5126,
            "count" : 240,
            "max" : [
                0.9510578513145447,
                1,
                0.9999999403953552
            ],
            "min" : [
                -0.9510578513145447,
                -1,
                -0.9999999403953552
            ],
            "type" : "VEC3"
        },
        {
            "bufferView" : 9,
            "componentType" : 5126,
            "count" : 240,
            "type" : "VEC3"
        },
        {
            "bufferView" : 10,
            "componentType" : 5126,
            "count" : 240,
            "type" : "VEC2"
        },
        {
            "bufferView" : 11,
            "componentType" : 5123,
            "count" : 240,
            "type" : "SCALAR"
        }
    ],
    "bufferViews" : [
        {
            "buffer" : 0,
            "byteLength" : 5640,
            "byteOffset" : 0
        },
        {
            "buffer" : 0,
            "byteLength" : 5640,
            "byteOffset" : 5640
        },
        {
            "buffer" : 0,
            "byteLength" : 3760,
            "byteOffset" : 11280
        },
        {
            "buffer" : 0,
            "byteLength" : 1704,
            "byteOffset" : 15040
        },
        {
            "buffer" : 0,
            "byteLength" : 15420,
            "byteOffset" : 16744
        },
        {
            "buffer" : 0,
            "byteLength" : 15420,
            "byteOffset" : 32164
        },
        {
            "buffer" : 0,
            "byteLength" : 10280,
            "byteOffset" : 47584
        },
        {
            "buffer" : 0,
            "byteLength" : 14208,
            "byteOffset" : 57864
        },
        {
            "buffer" : 0,
            "byteLength" : 2880,
            "byteOffset" : 72072
        },
        {
            "buffer" : 0,
            "byteLength" : 2880,
            "byteOffset" : 74952
        },
        {
            "buffer" : 0,
            "byteLength" : 1920,
            "byteOffset" : 77832
        },
        {
            "buffer" : 0,
            "byteLength" : 480,
            "byteOffset" : 79752
        }
    ],
    "buffers" : [
        {
            "byteLength" : 80232,
            "uri" : "data:application/octet-stream;base64,"
        }
    ]
}
